<svg width="363" height="170" viewBox="0 0 363 170" fill="none" xmlns="http://www.w3.org/2000/svg">
<rect y="88.2946" width="7.38663" height="15.814" rx="3.69331" fill="#FFC54B"/>
<rect x="15.8285" y="79.0698" width="7.38663" height="32.9457" rx="3.69331" fill="#FFC54B"/>
<rect x="30.6017" y="65.8915" width="7.38663" height="52.7132" rx="3.69331" fill="#DF9F35"/>
<rect x="47.4855" y="36.8992" width="7.38663" height="110.698" rx="3.69331" fill="#DE901C"/>
<rect x="66.4796" width="7.38663" height="170" rx="3.69331" fill="#D77808"/>
<rect x="85.4738" y="36.8992" width="7.38663" height="110.698" rx="3.69331" fill="#DE901C"/>
<rect x="103.413" y="65.8915" width="7.38663" height="52.7132" rx="3.69331" fill="#DF9F35"/>
<rect x="121.352" y="79.0698" width="7.38663" height="32.9457" rx="3.69331" fill="#FFC54B"/>
<rect x="152.453" y="91.4302" width="6.38663" height="10.8605" rx="3.19331" stroke="#FFC54B"/>
<rect x="169.337" y="83.5233" width="6.38663" height="24.0388" rx="3.19331" stroke="#FFC54B"/>
<rect x="185.166" y="80.8876" width="6.38663" height="29.3101" rx="3.19331" stroke="#FFC54B"/>
<rect x="200.994" y="88.7946" width="6.38663" height="14.814" rx="3.19331" stroke="#FFC54B"/>
<rect x="216.823" y="92.7481" width="6.38663" height="8.22481" rx="3.19331" stroke="#FFC54B"/>
<rect x="245.314" y="88.7946" width="6.38663" height="14.814" rx="3.19331" stroke="#FFC54B"/>
<rect x="260.087" y="90.1124" width="6.38663" height="12.1783" rx="3.19331" stroke="#FFC54B"/>
<rect x="273.805" y="92.7481" width="6.38663" height="6.90698" rx="3.19331" stroke="#FFC54B"/>
<rect x="286.468" y="88.7946" width="6.38663" height="14.814" rx="3.19331" stroke="#FFC54B"/>
<rect x="302.297" y="84.8411" width="6.38663" height="21.4031" rx="3.19331" stroke="#FFC54B"/>
<rect x="317.07" y="80.8876" width="6.38663" height="26.6744" rx="3.19331" stroke="#FFFF5F"/>
<rect x="331.843" y="88.7946" width="6.38663" height="14.814" rx="3.19331" stroke="#FFFF5F"/>
<rect x="344.506" y="90.1124" width="6.38663" height="12.1783" rx="3.19331" stroke="#FFFF5F"/>
<rect x="356.113" y="92.7481" width="6.38663" height="8.22481" rx="3.19331" stroke="#FFC54B"/>
<rect x="136.125" y="88.2946" width="7.38663" height="15.814" rx="3.69331" fill="#FFC54B"/>
<rect x="231.596" y="75.6163" width="6.38663" height="37.2171" rx="3.19331" stroke="#FFC54B"/>
</svg>
