<svg width="222" height="198" viewBox="0 0 222 198" fill="none" xmlns="http://www.w3.org/2000/svg">
<mask id="path-1-outside-1_155_3326" maskUnits="userSpaceOnUse" x="80" y="-1" width="140" height="47" fill="black">
<rect fill="white" x="80" y="-1" width="140" height="47"/>
<path d="M81.2458 45V0.899997H91.4518V36.684H113.565V45H81.2458ZM118.637 45V0.899997H128.843V45H118.637ZM151.725 45L132.699 0.899997H143.724L160.356 39.96H153.867L170.751 0.899997H180.894L161.805 45H151.725ZM193.333 18.666H214.564V26.604H193.333V18.666ZM194.089 36.81H218.092V45H183.946V0.899997H217.273V9.09H194.089V36.81Z"/>
</mask>
<path d="M81.2458 45H80.2458V46H81.2458V45ZM81.2458 0.899997V-0.100003H80.2458V0.899997H81.2458ZM91.4518 0.899997H92.4518V-0.100003H91.4518V0.899997ZM91.4518 36.684H90.4518V37.684H91.4518V36.684ZM113.565 36.684H114.565V35.684H113.565V36.684ZM113.565 45V46H114.565V45H113.565ZM82.2458 45V0.899997H80.2458V45H82.2458ZM81.2458 1.9H91.4518V-0.100003H81.2458V1.9ZM90.4518 0.899997V36.684H92.4518V0.899997H90.4518ZM91.4518 37.684H113.565V35.684H91.4518V37.684ZM112.565 36.684V45H114.565V36.684H112.565ZM113.565 44H81.2458V46H113.565V44ZM118.637 45H117.637V46H118.637V45ZM118.637 0.899997V-0.100003H117.637V0.899997H118.637ZM128.843 0.899997H129.843V-0.100003H128.843V0.899997ZM128.843 45V46H129.843V45H128.843ZM119.637 45V0.899997H117.637V45H119.637ZM118.637 1.9H128.843V-0.100003H118.637V1.9ZM127.843 0.899997V45H129.843V0.899997H127.843ZM128.843 44H118.637V46H128.843V44ZM151.725 45L150.806 45.3961L151.067 46H151.725V45ZM132.699 0.899997V-0.100003H131.178L131.78 1.29613L132.699 0.899997ZM143.724 0.899997L144.644 0.508228L144.385 -0.100003H143.724V0.899997ZM160.356 39.96V40.96H161.868L161.276 39.5682L160.356 39.96ZM153.867 39.96L152.949 39.5632L152.345 40.96H153.867V39.96ZM170.751 0.899997V-0.100003H170.093L169.833 0.503221L170.751 0.899997ZM180.894 0.899997L181.811 1.29724L182.416 -0.100003H180.894V0.899997ZM161.805 45V46H162.461L162.722 45.3972L161.805 45ZM152.643 44.6039L133.617 0.503863L131.78 1.29613L150.806 45.3961L152.643 44.6039ZM132.699 1.9H143.724V-0.100003H132.699V1.9ZM142.804 1.29177L159.436 40.3518L161.276 39.5682L144.644 0.508228L142.804 1.29177ZM160.356 38.96H153.867V40.96H160.356V38.96ZM154.784 40.3568L171.668 1.29677L169.833 0.503221L152.949 39.5632L154.784 40.3568ZM170.751 1.9H180.894V-0.100003H170.751V1.9ZM179.976 0.502757L160.887 44.6028L162.722 45.3972L181.811 1.29724L179.976 0.502757ZM161.805 44H151.725V46H161.805V44ZM193.333 18.666V17.666H192.333V18.666H193.333ZM214.564 18.666H215.564V17.666H214.564V18.666ZM214.564 26.604V27.604H215.564V26.604H214.564ZM193.333 26.604H192.333V27.604H193.333V26.604ZM194.089 36.81H193.089V37.81H194.089V36.81ZM218.092 36.81H219.092V35.81H218.092V36.81ZM218.092 45V46H219.092V45H218.092ZM183.946 45H182.946V46H183.946V45ZM183.946 0.899997V-0.100003H182.946V0.899997H183.946ZM217.273 0.899997H218.273V-0.100003H217.273V0.899997ZM217.273 9.09V10.09H218.273V9.09H217.273ZM194.089 9.09V8.09H193.089V9.09H194.089ZM193.333 19.666H214.564V17.666H193.333V19.666ZM213.564 18.666V26.604H215.564V18.666H213.564ZM214.564 25.604H193.333V27.604H214.564V25.604ZM194.333 26.604V18.666H192.333V26.604H194.333ZM194.089 37.81H218.092V35.81H194.089V37.81ZM217.092 36.81V45H219.092V36.81H217.092ZM218.092 44H183.946V46H218.092V44ZM184.946 45V0.899997H182.946V45H184.946ZM183.946 1.9H217.273V-0.100003H183.946V1.9ZM216.273 0.899997V9.09H218.273V0.899997H216.273ZM217.273 8.09H194.089V10.09H217.273V8.09ZM193.089 9.09V36.81H195.089V9.09H193.089Z" fill="#FFC54B" mask="url(#path-1-outside-1_155_3326)"/>
<path d="M69.905 122.756C66.419 122.756 63.206 122.21 60.266 121.118C57.368 119.984 54.827 118.388 52.643 116.33C50.501 114.272 48.821 111.857 47.603 109.085C46.427 106.313 45.839 103.268 45.839 99.95C45.839 96.632 46.427 93.587 47.603 90.815C48.821 88.043 50.522 85.628 52.706 83.57C54.89 81.512 57.452 79.937 60.392 78.845C63.332 77.711 66.566 77.144 70.094 77.144C74 77.144 77.507 77.795 80.615 79.097C83.765 80.399 86.411 82.289 88.553 84.767L82.001 90.815C80.405 89.135 78.662 87.896 76.772 87.098C74.882 86.258 72.824 85.838 70.598 85.838C68.456 85.838 66.503 86.174 64.739 86.846C62.975 87.518 61.442 88.484 60.14 89.744C58.88 91.004 57.893 92.495 57.179 94.217C56.507 95.939 56.171 97.85 56.171 99.95C56.171 102.008 56.507 103.898 57.179 105.62C57.893 107.342 58.88 108.854 60.14 110.156C61.442 111.416 62.954 112.382 64.676 113.054C66.44 113.726 68.372 114.062 70.472 114.062C72.488 114.062 74.441 113.747 76.331 113.117C78.263 112.445 80.132 111.332 81.938 109.778L87.734 117.149C85.34 118.955 82.547 120.341 79.355 121.307C76.205 122.273 73.055 122.756 69.905 122.756ZM78.41 115.826V99.257H87.734V117.149L78.41 115.826ZM90.7885 122L110.445 77.9H120.525L140.244 122H129.534L113.406 83.066H117.438L101.247 122H90.7885ZM100.617 112.55L103.326 104.801H126.006L128.778 112.55H100.617ZM153.576 95.666H174.807V103.604H153.576V95.666ZM154.332 113.81H178.335V122H144.189V77.9H177.516V86.09H154.332V113.81ZM185.825 122V77.9H196.031V113.684H218.144V122H185.825Z" fill="url(#paint0_linear_155_3326)"/>
<path d="M8.55394 197V152.9H16.9959L35.7699 184.022H31.2969L49.7559 152.9H58.1349L58.2609 197H48.6849L48.6219 167.579H50.3859L35.6439 192.338H31.0449L15.9879 167.579H18.1299V197H8.55394ZM87.6869 197.756C81.4289 197.756 76.5359 196.013 73.0079 192.527C69.4799 189.041 67.7159 184.064 67.7159 177.596V152.9H77.9219V177.218C77.9219 181.418 78.7829 184.442 80.5049 186.29C82.2269 188.138 84.6419 189.062 87.7499 189.062C90.8579 189.062 93.2729 188.138 94.9949 186.29C96.7169 184.442 97.5779 181.418 97.5779 177.218V152.9H107.658V177.596C107.658 184.064 105.894 189.041 102.366 192.527C98.8379 196.013 93.9449 197.756 87.6869 197.756ZM131.603 197.756C128.075 197.756 124.694 197.294 121.46 196.37C118.226 195.404 115.622 194.165 113.648 192.653L117.113 184.967C119.003 186.311 121.229 187.424 123.791 188.306C126.395 189.146 129.02 189.566 131.666 189.566C133.682 189.566 135.299 189.377 136.517 188.999C137.777 188.579 138.701 188.012 139.289 187.298C139.877 186.584 140.171 185.765 140.171 184.841C140.171 183.665 139.709 182.741 138.785 182.069C137.861 181.355 136.643 180.788 135.131 180.368C133.619 179.906 131.939 179.486 130.091 179.108C128.285 178.688 126.458 178.184 124.61 177.596C122.804 177.008 121.145 176.252 119.633 175.328C118.121 174.404 116.882 173.186 115.916 171.674C114.992 170.162 114.53 168.23 114.53 165.878C114.53 163.358 115.202 161.069 116.546 159.011C117.932 156.911 119.99 155.252 122.72 154.034C125.492 152.774 128.957 152.144 133.115 152.144C135.887 152.144 138.617 152.48 141.305 153.152C143.993 153.782 146.366 154.748 148.424 156.05L145.274 163.799C143.216 162.623 141.158 161.762 139.1 161.216C137.042 160.628 135.026 160.334 133.052 160.334C131.078 160.334 129.461 160.565 128.201 161.027C126.941 161.489 126.038 162.098 125.492 162.854C124.946 163.568 124.673 164.408 124.673 165.374C124.673 166.508 125.135 167.432 126.059 168.146C126.983 168.818 128.201 169.364 129.713 169.784C131.225 170.204 132.884 170.624 134.69 171.044C136.538 171.464 138.365 171.947 140.171 172.493C142.019 173.039 143.699 173.774 145.211 174.698C146.723 175.622 147.941 176.84 148.865 178.352C149.831 179.864 150.314 181.775 150.314 184.085C150.314 186.563 149.621 188.831 148.235 190.889C146.849 192.947 144.77 194.606 141.998 195.866C139.268 197.126 135.803 197.756 131.603 197.756ZM156.658 197V152.9H166.864V197H156.658ZM197.805 197.756C194.403 197.756 191.232 197.21 188.292 196.118C185.394 194.984 182.874 193.388 180.732 191.33C178.59 189.272 176.91 186.857 175.692 184.085C174.516 181.313 173.928 178.268 173.928 174.95C173.928 171.632 174.516 168.587 175.692 165.815C176.91 163.043 178.59 160.628 180.732 158.57C182.916 156.512 185.457 154.937 188.355 153.845C191.253 152.711 194.424 152.144 197.868 152.144C201.69 152.144 205.134 152.816 208.2 154.16C211.308 155.462 213.912 157.394 216.012 159.956L209.46 166.004C207.948 164.282 206.268 163.001 204.42 162.161C202.572 161.279 200.556 160.838 198.372 160.838C196.314 160.838 194.424 161.174 192.702 161.846C190.98 162.518 189.489 163.484 188.229 164.744C186.969 166.004 185.982 167.495 185.268 169.217C184.596 170.939 184.26 172.85 184.26 174.95C184.26 177.05 184.596 178.961 185.268 180.683C185.982 182.405 186.969 183.896 188.229 185.156C189.489 186.416 190.98 187.382 192.702 188.054C194.424 188.726 196.314 189.062 198.372 189.062C200.556 189.062 202.572 188.642 204.42 187.802C206.268 186.92 207.948 185.597 209.46 183.833L216.012 189.881C213.912 192.443 211.308 194.396 208.2 195.74C205.134 197.084 201.669 197.756 197.805 197.756Z" fill="url(#paint1_linear_155_3326)"/>
<defs>
<linearGradient id="paint0_linear_155_3326" x1="48" y1="92" x2="163.5" y2="110" gradientUnits="userSpaceOnUse">
<stop stop-color="#DE901C"/>
<stop offset="1" stop-color="#FFFF5F"/>
</linearGradient>
<linearGradient id="paint1_linear_155_3326" x1="9.71428" y1="167" x2="130.14" y2="221.225" gradientUnits="userSpaceOnUse">
<stop stop-color="#DE901C"/>
<stop offset="1" stop-color="#FFC54B"/>
</linearGradient>
</defs>
</svg>
