<svg width="25" height="25" viewBox="0 0 25 25" fill="none" xmlns="http://www.w3.org/2000/svg">
<path d="M12.6041 21.6667C12.0833 21.6667 11.4583 21.4583 11.0416 21.0417C4.27081 15.1042 4.16665 15 4.16665 14.8958L4.06248 14.7917C2.81248 13.5417 2.08331 11.7708 2.08331 10V9.79167C2.18748 6.04167 5.20831 3.125 8.95831 3.125C10.1041 3.125 11.6666 3.75 12.6041 5C13.5416 3.75 15.2083 3.125 16.3541 3.125C20.1041 3.125 23.0208 6.04167 23.2291 9.79167V10C23.2291 11.875 22.5 13.5417 21.25 14.8958L21.1458 15C21.0416 15.1042 20.2083 15.8333 14.2708 21.1458C13.75 21.4583 13.2291 21.6667 12.6041 21.6667ZM5.72915 14.5833C6.14581 15 8.22915 16.4583 12.0833 19.7917C12.3958 20.1042 12.8125 20.1042 13.125 19.7917C17.0833 16.25 19.375 14.2708 19.8958 13.8542L20 13.75C21.0416 12.7083 21.5625 11.3542 21.5625 10V9.79167C21.4583 6.875 19.1666 4.6875 16.25 4.6875C15.5208 4.6875 14.0625 5.20833 13.5416 6.35417C13.3333 6.77083 12.9166 6.97917 12.5 6.97917C12.0833 6.97917 11.6666 6.77083 11.4583 6.35417C10.9375 5.3125 9.58331 4.6875 8.74998 4.6875C5.93748 4.6875 3.54165 6.97917 3.43748 9.79167V10.1042C3.43748 11.4583 4.06248 12.8125 4.99998 13.75L5.72915 14.5833Z" fill="#767676"/>
</svg>
