<svg width="30" height="30" viewBox="0 0 30 30" fill="none" xmlns="http://www.w3.org/2000/svg">
<path fill-rule="evenodd" clip-rule="evenodd" d="M2.598 9.27875C2 10.4625 2 11.8938 2 14.7537V16.6562C2 21.5312 2 23.97 3.3478 25.485C4.69445 27 6.86335 27 11.2 27H15.8C20.1367 27 22.3055 27 23.6522 25.485C25 23.97 25 21.5325 25 16.6562V14.755C25 11.8938 25 10.4637 24.402 9.27875C23.8063 8.0925 22.7149 7.3575 20.5334 5.885L18.2334 4.33375C15.9276 2.7775 14.7742 2 13.5 2C12.2258 2 11.0735 2.7775 8.7666 4.33375L6.4666 5.885C4.28505 7.3575 3.19485 8.0925 2.598 9.27875ZM12.6375 22C12.6375 22.2486 12.7284 22.4871 12.8901 22.6629C13.0519 22.8387 13.2713 22.9375 13.5 22.9375C13.7287 22.9375 13.9481 22.8387 14.1099 22.6629C14.2716 22.4871 14.3625 22.2486 14.3625 22V18.25C14.3625 18.0014 14.2716 17.7629 14.1099 17.5871C13.9481 17.4113 13.7287 17.3125 13.5 17.3125C13.2713 17.3125 13.0519 17.4113 12.8901 17.5871C12.7284 17.7629 12.6375 18.0014 12.6375 18.25V22Z" fill="#767676"/>
</svg>
