<svg width="25" height="25" viewBox="0 0 25 25" fill="none" xmlns="http://www.w3.org/2000/svg">
<path d="M8.85415 19.7917H8.33331C4.16665 19.7917 2.08331 18.75 2.08331 13.5417V8.33334C2.08331 4.16668 4.16665 2.08334 8.33331 2.08334H16.6666C20.8333 2.08334 22.9166 4.16668 22.9166 8.33334V13.5417C22.9166 17.7083 20.8333 19.7917 16.6666 19.7917H16.1458C15.8229 19.7917 15.5104 19.9479 15.3125 20.2083L13.75 22.2917C13.0625 23.2083 11.9375 23.2083 11.25 22.2917L9.68748 20.2083C9.52081 19.9792 9.1354 19.7917 8.85415 19.7917Z" stroke="#767676" stroke-width="1.5" stroke-miterlimit="10" stroke-linecap="round" stroke-linejoin="round"/>
<path d="M7.29169 8.33334H17.7084" stroke="#767676" stroke-width="1.5" stroke-linecap="round" stroke-linejoin="round"/>
<path d="M7.29169 13.5417H13.5417" stroke="#767676" stroke-width="1.5" stroke-linecap="round" stroke-linejoin="round"/>
</svg>
