<svg width="30" height="30" viewBox="0 0 30 30" fill="none" xmlns="http://www.w3.org/2000/svg">
<path d="M21.25 6.25H8.75C5 6.25 2.5 8.75 2.5 12.5V21.25C2.5 25 5 27.5 8.75 27.5H21.25C25 27.5 27.5 25 27.5 21.25V12.5C27.5 8.75 25 6.25 21.25 6.25Z" stroke="#767676" stroke-width="1.5" stroke-linecap="round" stroke-linejoin="round"/>
<path d="M8.75 2.5V6.25" stroke="#767676" stroke-width="1.5" stroke-linecap="round" stroke-linejoin="round"/>
<path d="M10.625 20C12.3509 20 13.75 18.6009 13.75 16.875C13.75 15.1491 12.3509 13.75 10.625 13.75C8.89911 13.75 7.5 15.1491 7.5 16.875C7.5 18.6009 8.89911 20 10.625 20Z" stroke="#767676" stroke-width="1.5" stroke-linecap="round" stroke-linejoin="round"/>
<path d="M18.125 13.75H23.125" stroke="#767676" stroke-width="1.5" stroke-linecap="round" stroke-linejoin="round"/>
<path d="M18.125 18.75H18.75" stroke="#767676" stroke-width="1.5" stroke-linecap="round" stroke-linejoin="round"/>
<path d="M22.5 18.75H23.125" stroke="#767676" stroke-width="1.5" stroke-linecap="round" stroke-linejoin="round"/>
</svg>
